<?xml version="1.0" encoding="UTF-8"?>
<svg id="Layer_2" xmlns="http://www.w3.org/2000/svg" xmlns:xlink="http://www.w3.org/1999/xlink" viewBox="0 0 421.75 421.57">
  <defs>
    <style>
      .cls-1 {
        fill: url(#linear-gradient-2);
      }

      .cls-2 {
        fill: url(#linear-gradient-4);
      }

      .cls-3 {
        fill: url(#linear-gradient-3);
      }

      .cls-4 {
        fill: url(#linear-gradient-5);
      }

      .cls-5 {
        fill: url(#linear-gradient-8);
      }

      .cls-6 {
        fill: url(#linear-gradient-7);
      }

      .cls-7 {
        fill: url(#linear-gradient-6);
      }

      .cls-8 {
        fill: url(#linear-gradient);
      }
    </style>
    <linearGradient id="linear-gradient" x1="412.63" y1="27.21" x2="-63.37" y2="519.21" gradientUnits="userSpaceOnUse">
      <stop offset="0" stop-color="#58a89d"/>
      <stop offset=".02" stop-color="#56a59c"/>
      <stop offset=".48" stop-color="#276b8a"/>
      <stop offset=".82" stop-color="#0a4680"/>
      <stop offset="1" stop-color="#00397c"/>
    </linearGradient>
    <linearGradient id="linear-gradient-2" x1="397.87" y1="12.93" x2="-78.13" y2="504.93" xlink:href="#linear-gradient"/>
    <linearGradient id="linear-gradient-3" x1="402.56" y1="17.47" x2="-73.44" y2="509.47" xlink:href="#linear-gradient"/>
    <linearGradient id="linear-gradient-4" x1="402.36" y1="17.28" x2="-73.64" y2="509.28" xlink:href="#linear-gradient"/>
    <linearGradient id="linear-gradient-5" x1="398.05" y1="13.11" x2="-77.95" y2="505.11" xlink:href="#linear-gradient"/>
    <linearGradient id="linear-gradient-6" x1="401.94" y1="16.87" x2="-74.06" y2="508.87" xlink:href="#linear-gradient"/>
    <linearGradient id="linear-gradient-7" x1="398.39" y1="13.44" x2="-77.61" y2="505.44" xlink:href="#linear-gradient"/>
    <linearGradient id="linear-gradient-8" x1="540.7" y1="151.12" x2="64.7" y2="643.12" xlink:href="#linear-gradient"/>
  </defs>
  <g id="Layer_1-2" data-name="Layer_1">
    <g>
      <path class="cls-8" d="M420.49,118.43c-3.26-4.29-6.9-2.06-10.06.94-16.25,15.42-35.88,22.13-57.98,22.33-5.53.05-11.02-.23-16.48-.74-9.06-.84-18.03-2.36-26.97-4.22-6.37-1.33-14.12-1.08-18.64-4.76-4.83-3.93-4.02-12.32-5.29-18.81-.89-4.55-1.74-9.11-2.48-13.67-2.21-13.52-3.44-27.13-1.86-41,1.98-17.46,8.65-32.66,20.4-45.68.53-.58.98-1.23,1.55-1.78,2.83-2.78,4.55-6.01,1.26-9.24-3.59-3.53-6.89-1.29-9.65,1.68-8.4,9.08-15.07,19.24-19.27,30.94-7.67,21.41-6.9,43.18-3.57,65.07.18,1.11.36,2.24.53,3.36.87,5.29,1.81,10.57,2.74,15.9-.88.06-1.13.15-1.25.07-1.08-.85-2.16-1.7-3.2-2.6-6.68-5.7-13.43-11.3-20.28-16.73-26.57-21.07-54.68-39.78-85.97-53.65-21.44-9.51-43.49-16.75-67.48-14.8-22.41,1.81-37.81,16.43-40.9,38.75-2.59,18.55,1.52,36.17,7.7,53.38,10.57,29.47,26.26,56.01,44.21,81.26,3.8,5.34,7.69,10.61,11.66,15.86,1.29,1.71,2.76,3.21,2.86,5.66.57,15.64,3.69,30.93,6.94,46.18.84,3.94.02,4.93-3.94,4.01-5.81-1.34-11.65-2.59-17.52-3.63-6.56-1.19-13.15-2.13-19.79-2.75-20.88-1.96-41.43-.98-60.82,8.31-9.35,4.49-17.65,10.45-24.94,17.8-2.42,2.44-2.76,5.3-.28,7.9,2.47,2.6,5.24,2.35,7.9.12,1.36-1.14,2.69-2.31,4.01-3.5,12.3-10.97,26.66-17.37,42.99-19.47,17.32-2.23,34.18-.15,50.94,2.95,7.46,1.39,14.9,2.99,22.36,4.49,2.82.58,3.24,2.53,3.65,4.67,1.15,5.97,2.32,11.92,3.46,17.87.98,5.1,1.92,10.19,2.79,15.3,1.45,8.56,1.83,17.26,2.12,25.95.28,8.7-2,17.03-3.87,25.27-2.92,13.02-10.25,24.02-19.26,33.85-3.84,4.2-3.25,8.35,1.14,9.91,3.47,1.25,5.56-.87,7.64-3.08,16.7-17.83,24.59-39.15,25.27-63.39.42-14.85-1.55-29.38-4.28-43.81-.89-4.76-1.87-9.49-2.87-14.22-.78-3.68-.58-4.9,3.78-3.95,13.29,2.92,26.68,5.36,40.28,6.62,1.34.12,3.23.21,3.88,1.07,3.42,4.52,8.41,7.07,12.7,10.48.27.21.56.44.83.68,30.79,25.89,63.57,48.78,100.64,64.97,18.93,8.28,38.39,14.58,59.37,14.36,22.97-.23,39.08-11.05,45.24-30.33,3.39-10.58,3.38-21.41,1.77-32.25-4.63-31.1-18.55-58.49-34.54-84.96-12.9-21.35-27.61-41.28-43.68-60.29-9.95-11.78-20.42-23.2-31.32-34.37,6.64-1.17,12.5.81,18.38,1.71,4.35.66,8.66,1.21,12.94,1.59,29.67,2.72,57.57-1.98,81.51-23.71,3.04-2.74,6.05-5.91,3.01-9.88ZM121.96,204.76c-5.44-6.65-10.03-13.37-14.42-20.13-.85-1.3-1.68-2.62-2.53-3.93-16.07-25.23-30.12-51.38-36.78-80.88-1.48-6.57-2.21-13.21-2.16-19.96.17-25.4,14.49-39.16,39.9-38.02,23.8,1.07,45.39,9.7,66.27,20.22,21,10.59,40.69,23.3,59.41,37.44,3.57,2.7,7.1,5.44,10.6,8.24,7.42,5.92,15.24,11.47,21.51,18.96-9.44-2.7-19.11-3.59-28.49-4.6-49.17-5.27-101.53,15.8-112.3,79.26-.15.93-.53,1.81-1.02,3.39ZM204.43,288.8h-4.48c-17.55-.38-36.1-4.28-54.64-8.29-2.08-.45-3.56-1.14-4.07-3.56-4.6-21.97-9.54-43.9-8.08-66.59l48.15,48.15c.95.95,2.19,1.42,3.43,1.42s2.49-.47,3.44-1.42c1.9-1.9,1.9-4.97,0-6.87l-53.43-53.43c1.09-5.39,2.67-10.56,4.71-15.46l50.79,50.79c.95.95,2.19,1.42,3.43,1.42s2.49-.47,3.44-1.42c1.9-1.9,1.9-4.97,0-6.87l-53.12-53.12c3.04-5.3,6.64-10.2,10.74-14.62l41.88,41.88c.95.95,2.19,1.42,3.44,1.42s2.48-.47,3.43-1.42c1.9-1.9,1.9-4.98,0-6.88l-41.73-41.73c14.09-11.92,32.4-19.07,52.71-19.4,21.15-.34,41.59,3.95,62.06,8.34,1.77.38,3.39.72,3.85,2.99,3.64,17.73,8,35.42,8.61,53.48l-33.15-33.15c-.95-.95-2.19-1.42-3.44-1.42s-2.49.47-3.44,1.42c-1.9,1.9-1.9,4.97,0,6.87l39.73,39.73c-.06.73-.1,1.45-.18,2.18-.54,5.27-1.49,10.33-2.78,15.16l-39.63-39.63c-.95-.95-2.19-1.42-3.44-1.42s-2.49.47-3.44,1.42c-1.9,1.9-1.9,4.98,0,6.88l43.06,43.06c-2.35,5.81-5.27,11.21-8.71,16.15l-32.91-32.91c-.95-.95-2.19-1.42-3.43-1.42s-2.49.47-3.44,1.42c-1.9,1.9-1.9,4.97,0,6.87l33.69,33.69c-15.08,16.65-37.12,26.29-63.08,26.29ZM335.97,200.75c21.18,26.3,39.74,54.47,53.84,85.72,7.91,17.52,14.04,35.69,14.11,55.23.09,24.91-13.78,38.47-38.71,38.08-21.22-.34-40.68-7.45-59.5-16.33-29.6-13.96-56.48-32.13-81.84-52.54-3.58-2.89-7.13-5.82-10.66-8.79-.4-.34-.66-.88-1.6-2.13,15.64-1.65,29.96-4.95,42.85-12.9,27.41-16.95,42.75-41.35,45.24-73.55,1.44-18.43-.63-36.6-5.28-54.48-.21-.77-.71-1.48.06-2.06.88-.68,2.04-.47,2.73.17,2,1.89,3.88,3.93,5.78,5.94,11.48,12.2,22.56,24.7,32.98,37.65Z"/>
      <path class="cls-1" d="M35.5,311.35c-3.03-3.04-6.53-5.53-10.17-1.83-3.76,3.82-.75,7.11,2.21,10.06,24.73,24.69,49.43,49.42,74.16,74.12,1.25,1.25,2.49,2.63,3.99,3.49,4.02,2.28,8.39-.4,8.22-4.88-.1-2.35-1.47-3.99-3.04-5.56-25.13-25.12-50.26-50.25-75.36-75.4Z"/>
      <path class="cls-3" d="M331.61,55.48c18.41,18.43,36.81,36.87,55.25,55.27,2.8,2.79,6.13,5.25,9.65,1.46,3.02-3.26,1.41-6.45-1.43-9.29-25.27-25.24-50.49-50.53-75.73-75.8-1.68-1.68-3.35-3.43-6.04-3.32-2.08.09-3.91.72-4.79,2.81-1.21,2.88-.48,5.35,1.72,7.53,7.14,7.09,14.25,14.22,21.36,21.34Z"/>
      <path class="cls-2" d="M299.95,49.44c-2.08,1.98-2.13,4.65-.73,7.08.77,1.33,2.03,2.39,3.14,3.5,16.99,17.02,33.98,34.03,50.98,51.03,3.7,3.7,7.41,7.4,11.22,10.99,1.9,1.79,4.22,2.03,6.57.81,1.99-1.03,2.67-2.78,2.51-4.93.09-2.92-1.94-4.59-3.75-6.4-19.66-19.65-39.31-39.3-58.98-58.93-1.25-1.25-2.5-2.54-3.94-3.56-2.38-1.69-4.99-1.55-7.04.41Z"/>
      <path class="cls-4" d="M53.29,298.18c-1.92.18-3.77.83-4.64,2.89-1.34,3.17-.14,5.66,2.17,7.96,20.7,20.61,41.37,41.25,62.03,61.91,2.87,2.87,6.13,4.3,9.25,1.05,2.82-2.94,1.61-6.12-1.11-8.84-20.82-20.78-41.62-41.57-62.39-62.39-1.46-1.46-3.05-2.46-5.29-2.58Z"/>
      <path class="cls-7" d="M302.78,83.6c-2.14-2.16-4.47-3.16-7.44-1.85-2.1.92-2.8,2.63-2.79,5.1-.09,1.57.67,3.07,2.01,4.4,12,11.98,23.97,24.01,35.97,35.99,2.55,2.55,5.65,3.4,8.36.64,2.85-2.9,2.1-6.07-.69-8.84-3.46-3.43-6.89-6.88-10.33-10.32-8.37-8.37-16.75-16.72-25.09-25.12Z"/>
      <path class="cls-6" d="M119.32,338.26c2.61,2.62,5.56,3.45,8.32.87,2.96-2.77,2.39-5.95-.42-8.76-3.06-3.06-6.1-6.15-9.15-9.21-8.76-8.77-17.51-17.54-26.3-26.28-2.05-2.04-4.4-3.37-7.41-2.09-2.3.98-3.09,2.87-3.01,5.92-.5,3.78,3.5,5,5.87,7.39,10.69,10.73,21.43,21.42,32.11,32.16Z"/>
      <path class="cls-5" d="M357.33,370.35c1.18-.12,2.35-.33,3.5-.58,19.58-4.18,30.2-19.46,29.5-42.47-.39-13.76-3.62-26.92-8.33-39.79-1.45-3.96-3.68-7.04-8.24-5.25-4.56,1.79-3.72,5.5-2.3,9.33,4.77,12.83,8.23,25.97,7.72,39.8-.35,9.4-2.84,17.97-11.26,23.56-3.83,2.55-8.19,3.72-12.67,4.65-3.08.64-4.87,2.9-4.34,6.08.56,3.37,2.9,5.01,6.41,4.66Z"/>
    </g>
  </g>
</svg>