<?xml version="1.0" encoding="UTF-8"?>
<svg id="Layer_2" xmlns="http://www.w3.org/2000/svg" xmlns:xlink="http://www.w3.org/1999/xlink" viewBox="0 0 250.11 270.01">
  <defs>
    <style>
      .cls-1 {
        fill: url(#linear-gradient-15);
      }

      .cls-2 {
        fill: url(#linear-gradient-13);
      }

      .cls-3 {
        fill: url(#linear-gradient-2);
      }

      .cls-4 {
        fill: url(#linear-gradient-10);
      }

      .cls-5 {
        fill: url(#linear-gradient-12);
      }

      .cls-6 {
        fill: #fafcfe;
      }

      .cls-7 {
        fill: url(#linear-gradient-4);
      }

      .cls-8 {
        fill: url(#linear-gradient-3);
      }

      .cls-9 {
        fill: url(#linear-gradient-5);
      }

      .cls-10 {
        fill: url(#linear-gradient-8);
      }

      .cls-11 {
        fill: url(#linear-gradient-14);
      }

      .cls-12 {
        fill: url(#linear-gradient-7);
      }

      .cls-13 {
        fill: url(#linear-gradient-9);
      }

      .cls-14 {
        fill: url(#linear-gradient-11);
      }

      .cls-15 {
        fill: url(#linear-gradient-6);
      }

      .cls-16 {
        fill: url(#linear-gradient);
      }
    </style>
    <linearGradient id="linear-gradient" x1="25.44" y1="143.69" x2="280.44" y2="100.73" gradientUnits="userSpaceOnUse">
      <stop offset="0" stop-color="#944bcf"/>
      <stop offset="1" stop-color="#18a1e5"/>
    </linearGradient>
    <linearGradient id="linear-gradient-2" x1="10.54" y1="55.2" x2="265.54" y2="12.25" xlink:href="#linear-gradient"/>
    <linearGradient id="linear-gradient-3" x1="11.41" y1="60.42" x2="266.42" y2="17.46" xlink:href="#linear-gradient"/>
    <linearGradient id="linear-gradient-4" x1="24.56" y1="138.45" x2="279.56" y2="95.49" xlink:href="#linear-gradient"/>
    <linearGradient id="linear-gradient-5" x1="12.45" y1="66.55" x2="267.45" y2="23.6" xlink:href="#linear-gradient"/>
    <linearGradient id="linear-gradient-6" x1="23.53" y1="132.36" x2="278.54" y2="89.4" xlink:href="#linear-gradient"/>
    <linearGradient id="linear-gradient-7" x1="26.92" y1="152.44" x2="281.92" y2="109.49" xlink:href="#linear-gradient"/>
    <linearGradient id="linear-gradient-8" x1="203.76" y1="10.48" x2="20.41" y2="200" gradientUnits="userSpaceOnUse">
      <stop offset="0" stop-color="#58a89d"/>
      <stop offset=".02" stop-color="#56a59c"/>
      <stop offset=".48" stop-color="#276b8a"/>
      <stop offset=".82" stop-color="#0a4680"/>
      <stop offset="1" stop-color="#00397c"/>
    </linearGradient>
    <linearGradient id="linear-gradient-9" x1="198.08" y1="4.98" x2="14.73" y2="194.5" xlink:href="#linear-gradient-8"/>
    <linearGradient id="linear-gradient-10" x1="199.89" y1="6.73" x2="16.53" y2="196.24" xlink:href="#linear-gradient-8"/>
    <linearGradient id="linear-gradient-11" x1="199.81" y1="6.66" x2="16.46" y2="196.17" xlink:href="#linear-gradient-8"/>
    <linearGradient id="linear-gradient-12" x1="198.15" y1="5.05" x2="14.8" y2="194.56" xlink:href="#linear-gradient-8"/>
    <linearGradient id="linear-gradient-13" x1="199.65" y1="6.5" x2="16.3" y2="196.01" xlink:href="#linear-gradient-8"/>
    <linearGradient id="linear-gradient-14" x1="198.28" y1="5.18" x2="14.93" y2="194.69" xlink:href="#linear-gradient-8"/>
    <linearGradient id="linear-gradient-15" x1="253.1" y1="58.21" x2="69.74" y2="247.72" xlink:href="#linear-gradient-8"/>
  </defs>
  <g id="Layer_1-2" data-name="Layer_1">
    <g>
      <g>
        <path class="cls-6" d="M20.34,183.65c3.96,0,7.46.61,10.49,1.84,3.03,1.23,5.67,3.02,7.91,5.39l-5.36,7.17c-1.85-1.94-3.84-3.39-5.97-4.36-2.13-.97-4.55-1.45-7.26-1.45-1.59,0-2.88.17-3.87.52-.99.35-1.7.82-2.13,1.42-.43.6-.65,1.29-.65,2.07,0,.9.42,1.67,1.26,2.29.84.62,2.21,1.15,4.1,1.58l7.17,1.61c4.26.99,7.38,2.43,9.36,4.33,1.98,1.89,2.97,4.41,2.97,7.55s-.77,5.56-2.32,7.65c-1.55,2.09-3.68,3.66-6.39,4.71-2.71,1.05-5.81,1.58-9.3,1.58-2.84,0-5.55-.31-8.13-.94-2.58-.62-4.91-1.52-6.97-2.68-2.07-1.16-3.81-2.5-5.23-4l5.36-7.42c1.08,1.25,2.4,2.36,3.97,3.32,1.57.97,3.29,1.73,5.16,2.29,1.87.56,3.78.84,5.71.84,1.51,0,2.77-.15,3.78-.45,1.01-.3,1.75-.75,2.23-1.36.47-.6.71-1.31.71-2.13,0-.9-.32-1.67-.97-2.29-.65-.62-1.87-1.15-3.68-1.58l-7.88-1.74c-2.41-.56-4.55-1.3-6.42-2.23-1.87-.93-3.35-2.17-4.42-3.74-1.08-1.57-1.61-3.54-1.61-5.91,0-2.67.73-5.05,2.19-7.13,1.46-2.09,3.57-3.73,6.33-4.94,2.75-1.2,6.05-1.81,9.88-1.81Z"/>
        <path class="cls-6" d="M59.85,193.98c3.27,0,5.99.46,8.17,1.39,2.17.93,3.87,2.15,5.1,3.68,1.23,1.53,1.99,3.17,2.29,4.94l-10.14,3.36c-.3-1.85-.85-3.24-1.65-4.16-.8-.92-1.95-1.39-3.45-1.39-1.38,0-2.53.31-3.45.94-.93.62-1.63,1.61-2.1,2.97-.47,1.36-.71,3.09-.71,5.2s.26,3.82.78,5.13c.52,1.31,1.25,2.26,2.19,2.84.95.58,2.07.87,3.36.87,1.08,0,1.97-.2,2.68-.61.71-.41,1.3-1,1.78-1.78.47-.77.77-1.72.9-2.84l9.88,3.16c-.3,1.89-1.11,3.58-2.42,5.07-1.31,1.49-3.05,2.66-5.2,3.52-2.15.86-4.67,1.29-7.55,1.29-3.53,0-6.61-.66-9.23-1.97-2.63-1.31-4.65-3.23-6.07-5.75-1.42-2.52-2.13-5.54-2.13-9.07s.71-6.55,2.13-9.07c1.42-2.52,3.41-4.43,5.97-5.75,2.56-1.31,5.52-1.97,8.88-1.97Z"/>
        <path class="cls-6" d="M86.64,190.88c-2.24,0-3.86-.42-4.87-1.26-1.01-.84-1.52-2.16-1.52-3.97s.51-3.2,1.52-4.04c1.01-.84,2.64-1.26,4.87-1.26s3.81.42,4.84,1.26c1.03.84,1.55,2.18,1.55,4.04s-.52,3.13-1.55,3.97c-1.03.84-2.65,1.26-4.84,1.26ZM92.13,194.62v32.28h-10.98v-32.28h10.98Z"/>
        <path class="cls-6" d="M150.04,184.29v42.61h-9.81v-19.56l.32-13.11h-.13l-10.52,32.67h-8.97l-10.52-32.67h-.13l.32,13.11v19.56h-9.88v-42.61h15.82l6.71,21.69,2.39,9.04h.13l2.45-8.97,6.65-21.76h15.17Z"/>
        <path class="cls-6" d="M164.18,190.88c-2.24,0-3.86-.42-4.87-1.26-1.01-.84-1.52-2.16-1.52-3.97s.51-3.2,1.52-4.04c1.01-.84,2.64-1.26,4.87-1.26s3.81.42,4.84,1.26c1.03.84,1.55,2.18,1.55,4.04s-.52,3.13-1.55,3.97c-1.03.84-2.65,1.26-4.84,1.26ZM169.67,194.62v32.28h-10.98v-32.28h10.98Z"/>
        <path class="cls-6" d="M177.48,226.91v-32.28h9.81l.58,11.1-1.23-1.23c.43-2.32,1.19-4.26,2.29-5.81,1.1-1.55,2.47-2.72,4.13-3.52,1.66-.8,3.52-1.19,5.58-1.19,2.24,0,4.19.43,5.84,1.29,1.66.86,2.96,2.13,3.91,3.81.95,1.68,1.42,3.79,1.42,6.33v21.5h-10.98v-18.59c0-2.24-.43-3.79-1.29-4.65-.86-.86-1.96-1.29-3.29-1.29-1.03,0-2,.25-2.91.74-.9.5-1.61,1.28-2.13,2.36-.52,1.08-.77,2.52-.77,4.33v17.11h-10.98Z"/>
        <path class="cls-6" d="M229.38,227.55c-2.67,0-5-.66-7-1.97-2-1.31-3.55-3.22-4.65-5.71-1.1-2.5-1.65-5.49-1.65-8.97s.57-6.67,1.71-9.17c1.14-2.5,2.73-4.41,4.78-5.75,2.04-1.33,4.4-2,7.07-2,2.93,0,5.28.89,7.07,2.68,1.79,1.79,2.94,4.06,3.45,6.81l-1.03,1.36v-23.89h10.98v45.97h-9.81l-.71-10.98,1.29.97c-.26,2.15-.91,4.03-1.97,5.62-1.06,1.59-2.39,2.83-4,3.71-1.61.88-3.45,1.32-5.52,1.32ZM233.19,219.48c1.25,0,2.31-.33,3.2-1,.88-.67,1.56-1.67,2.03-3,.47-1.33.71-2.97.71-4.91,0-1.81-.23-3.35-.68-4.62-.45-1.27-1.12-2.24-2-2.91-.88-.67-1.95-1-3.2-1-1.89,0-3.39.7-4.49,2.1-1.1,1.4-1.65,3.61-1.65,6.62s.54,5.22,1.61,6.62c1.08,1.4,2.56,2.1,4.46,2.1Z"/>
        <g>
          <path class="cls-6" d="M4.6,269.49v-34.45h24.17v3.92H8.78v11.12h15.56v3.92h-15.56v11.59h20.78v3.92H4.6Z"/>
          <path class="cls-6" d="M46.31,270.01c-2.16,0-4.14-.54-5.95-1.62-1.81-1.08-3.25-2.64-4.33-4.67-1.08-2.04-1.62-4.46-1.62-7.28s.57-5.34,1.72-7.36c1.15-2.02,2.66-3.56,4.54-4.62,1.88-1.06,3.9-1.59,6.06-1.59s4.03.56,5.61,1.67c1.58,1.11,2.64,2.59,3.16,4.44l-.52.37v-17.96h4.18v38.11h-3.65l-.37-6.32.57-.31c-.24,1.53-.83,2.83-1.75,3.89-.92,1.06-2.05,1.87-3.39,2.43-1.34.56-2.76.84-4.25.84ZM46.73,266.36c1.67,0,3.12-.42,4.36-1.25,1.23-.84,2.19-2.03,2.87-3.58.68-1.55,1.02-3.37,1.02-5.46s-.34-3.69-1.02-5.12c-.68-1.43-1.62-2.52-2.82-3.29-1.2-.76-2.6-1.15-4.2-1.15-2.65,0-4.7.91-6.16,2.71-1.46,1.81-2.19,4.21-2.19,7.2s.71,5.39,2.14,7.2c1.43,1.81,3.43,2.71,6,2.71Z"/>
          <path class="cls-6" d="M78.31,270.01c-1.67,0-3.25-.31-4.72-.94-1.48-.63-2.68-1.64-3.6-3.05-.92-1.41-1.38-3.24-1.38-5.51v-17.12h4.18v16.03c0,2.65.57,4.46,1.72,5.45,1.15.99,2.77,1.49,4.85,1.49.97,0,1.93-.16,2.87-.5.94-.33,1.78-.85,2.53-1.57.75-.71,1.34-1.63,1.77-2.74.43-1.11.65-2.44.65-3.97v-14.2h4.18v26.1h-3.65l-.26-3.97c-.91,1.57-2.13,2.71-3.68,3.42-1.55.71-3.37,1.07-5.45,1.07Z"/>
          <path class="cls-6" d="M111.87,242.87c1.81,0,3.4.28,4.78.84,1.37.56,2.57,1.36,3.58,2.4,1.01,1.04,1.83,2.28,2.45,3.71l-3.97,1.88c-.56-1.67-1.4-2.95-2.53-3.84-1.13-.89-2.6-1.33-4.41-1.33s-3.24.39-4.49,1.17c-1.25.78-2.21,1.91-2.87,3.39-.66,1.48-.99,3.26-.99,5.35s.33,3.83.99,5.32c.66,1.5,1.62,2.64,2.87,3.42,1.25.78,2.75,1.17,4.49,1.17,1.36,0,2.53-.21,3.52-.63.99-.42,1.81-1.03,2.45-1.83.64-.8,1.09-1.77,1.33-2.92l3.86,1.36c-.59,1.6-1.4,2.98-2.43,4.12-1.03,1.15-2.26,2.03-3.71,2.64-1.44.61-3.09.91-4.93.91-2.44,0-4.61-.54-6.52-1.62-1.91-1.08-3.41-2.64-4.49-4.67-1.08-2.04-1.62-4.46-1.62-7.28s.54-5.25,1.62-7.28c1.08-2.04,2.57-3.59,4.49-4.67,1.91-1.08,4.09-1.62,6.52-1.62Z"/>
          <path class="cls-6" d="M145.54,252.63c0-1.95-.52-3.45-1.57-4.52-1.04-1.06-2.52-1.59-4.44-1.59-1.81,0-3.34.39-4.59,1.17-1.25.78-2.18,2.04-2.77,3.78l-3.39-2.09c.7-1.95,1.98-3.52,3.86-4.72,1.88-1.2,4.21-1.8,6.99-1.8,1.88,0,3.58.32,5.12.97,1.53.64,2.74,1.62,3.63,2.92.89,1.3,1.33,2.98,1.33,5.04v12.63c0,1.25.66,1.88,1.98,1.88.66,0,1.3-.09,1.93-.26l-.21,3.29c-.7.35-1.6.52-2.71.52-1.01,0-1.91-.19-2.71-.57-.8-.38-1.43-.97-1.88-1.75-.45-.78-.68-1.77-.68-2.95v-.52l1.04.16c-.42,1.36-1.13,2.46-2.14,3.31-1.01.85-2.14,1.48-3.39,1.88-1.25.4-2.49.6-3.71.6-1.53,0-2.96-.26-4.28-.78-1.32-.52-2.38-1.31-3.16-2.38-.78-1.06-1.17-2.38-1.17-3.94,0-1.95.65-3.56,1.96-4.83,1.31-1.27,3.12-2.13,5.46-2.58l10.34-2.04v3.45l-8.4,1.72c-1.71.35-2.98.84-3.81,1.46-.84.63-1.25,1.5-1.25,2.61s.43,1.96,1.28,2.64c.85.68,2.06,1.02,3.63,1.02,1.01,0,1.97-.13,2.9-.39.92-.26,1.75-.66,2.48-1.2.73-.54,1.31-1.22,1.72-2.04.42-.82.63-1.78.63-2.9v-7.2Z"/>
          <path class="cls-6" d="M174.46,243.39v3.6h-18.9v-3.6h18.9ZM164.96,235.98v26.31c0,1.29.36,2.24,1.1,2.87.73.63,1.67.94,2.82.94,1.01,0,1.88-.17,2.61-.52.73-.35,1.39-.82,1.98-1.41l1.46,3.5c-.8.73-1.75,1.31-2.84,1.72-1.1.42-2.36.63-3.78.63-1.32,0-2.56-.23-3.71-.7-1.15-.47-2.06-1.22-2.74-2.24-.68-1.03-1.04-2.38-1.07-4.05v-25.89l4.18-1.15Z"/>
          <path class="cls-6" d="M182.76,238.38c-.94,0-1.7-.29-2.27-.86-.57-.57-.86-1.33-.86-2.27s.29-1.7.86-2.27c.57-.57,1.33-.86,2.27-.86s1.7.29,2.27.86.86,1.33.86,2.27-.29,1.7-.86,2.27c-.57.57-1.33.86-2.27.86ZM184.85,243.39v26.1h-4.18v-26.1h4.18Z"/>
          <path class="cls-6" d="M205.36,242.87c2.47,0,4.65.54,6.55,1.62,1.9,1.08,3.38,2.64,4.46,4.67,1.08,2.04,1.62,4.46,1.62,7.28s-.54,5.25-1.62,7.28c-1.08,2.04-2.57,3.59-4.46,4.67-1.9,1.08-4.08,1.62-6.55,1.62s-4.61-.54-6.52-1.62c-1.91-1.08-3.41-2.64-4.49-4.67-1.08-2.04-1.62-4.46-1.62-7.28s.54-5.25,1.62-7.28c1.08-2.04,2.57-3.59,4.49-4.67,1.91-1.08,4.09-1.62,6.52-1.62ZM205.36,246.47c-1.77,0-3.29.4-4.54,1.2-1.25.8-2.22,1.94-2.9,3.42-.68,1.48-1.02,3.26-1.02,5.35s.34,3.83,1.02,5.32c.68,1.5,1.64,2.65,2.9,3.45,1.25.8,2.77,1.2,4.54,1.2s3.29-.4,4.54-1.2c1.25-.8,2.22-1.95,2.9-3.45.68-1.5,1.02-3.27,1.02-5.32s-.34-3.87-1.02-5.35c-.68-1.48-1.64-2.62-2.9-3.42-1.25-.8-2.77-1.2-4.54-1.2Z"/>
          <path class="cls-6" d="M225.87,269.49v-26.1h3.65l.36,5.85-.68-.57c.56-1.39,1.3-2.51,2.24-3.37.94-.85,2.03-1.47,3.26-1.85,1.23-.38,2.51-.57,3.84-.57,1.88,0,3.58.36,5.12,1.07,1.53.71,2.76,1.8,3.68,3.26.92,1.46,1.38,3.32,1.38,5.59v16.7h-4.18v-15.24c0-2.89-.62-4.9-1.85-6.03-1.24-1.13-2.76-1.7-4.57-1.7-1.25,0-2.51.3-3.76.89-1.25.59-2.29,1.55-3.11,2.87-.82,1.32-1.23,3.1-1.23,5.32v13.88h-4.18Z"/>
        </g>
      </g>
      <g>
        <path class="cls-16" d="M58.44,119.96c-1.17-1.17-2.52-2.13-3.92-.71-1.45,1.47-.29,2.74.85,3.88,9.53,9.52,19.06,19.05,28.59,28.57.48.48.96,1.01,1.54,1.34,1.55.88,3.24-.15,3.17-1.88-.04-.91-.57-1.54-1.17-2.14-9.69-9.69-19.38-19.37-29.05-29.07Z"/>
        <path class="cls-3" d="M172.6,21.32c7.1,7.1,14.19,14.22,21.3,21.31,1.08,1.07,2.36,2.03,3.72.56,1.17-1.26.54-2.49-.55-3.58-9.74-9.73-19.46-19.48-29.19-29.22-.65-.65-1.29-1.32-2.33-1.28-.8.03-1.51.28-1.84,1.08-.47,1.11-.18,2.06.66,2.9,2.75,2.73,5.49,5.48,8.23,8.23Z"/>
        <path class="cls-8" d="M160.39,18.99c-.8.77-.82,1.79-.28,2.73.3.51.78.92,1.21,1.35,6.55,6.56,13.1,13.12,19.65,19.67,1.43,1.43,2.86,2.85,4.33,4.24.73.69,1.63.78,2.53.31.77-.4,1.03-1.07.97-1.9.03-1.13-.75-1.77-1.45-2.47-7.58-7.57-15.15-15.15-22.74-22.72-.48-.48-.97-.98-1.52-1.37-.92-.65-1.92-.6-2.72.16Z"/>
        <path class="cls-7" d="M65.3,114.88c-.74.07-1.46.32-1.79,1.11-.52,1.22-.05,2.18.83,3.07,7.98,7.95,15.95,15.9,23.91,23.87,1.11,1.11,2.36,1.66,3.56.41,1.09-1.13.62-2.36-.43-3.41-8.03-8.01-16.04-16.03-24.05-24.05-.56-.56-1.18-.95-2.04-1Z"/>
        <path class="cls-9" d="M161.48,32.16c-.83-.83-1.72-1.22-2.87-.71-.81.35-1.08,1.01-1.07,1.97-.03.6.26,1.18.77,1.7,4.63,4.62,9.24,9.26,13.87,13.87.98.98,2.18,1.31,3.22.25,1.1-1.12.81-2.34-.27-3.41-1.33-1.32-2.65-2.65-3.98-3.98-3.23-3.23-6.46-6.45-9.67-9.68Z"/>
        <path class="cls-15" d="M90.76,130.33c1,1.01,2.14,1.33,3.21.33,1.14-1.07.92-2.29-.16-3.38-1.18-1.18-2.35-2.37-3.53-3.55-3.38-3.38-6.75-6.76-10.14-10.13-.79-.79-1.7-1.3-2.86-.81-.89.38-1.19,1.11-1.16,2.28-.19,1.46,1.35,1.93,2.26,2.85,4.12,4.14,8.26,8.26,12.38,12.4Z"/>
        <path class="cls-12" d="M182.51,142.7c.45-.05.9-.13,1.35-.22,7.55-1.61,11.64-7.5,11.37-16.37-.15-5.31-1.39-10.38-3.21-15.34-.56-1.53-1.42-2.72-3.18-2.02-1.76.69-1.44,2.12-.89,3.6,1.84,4.94,3.17,10.01,2.98,15.35-.13,3.62-1.09,6.93-4.34,9.08-1.48.98-3.16,1.43-4.89,1.79-1.19.25-1.88,1.12-1.67,2.34.22,1.3,1.12,1.93,2.47,1.8Z"/>
        <g>
          <path class="cls-10" d="M206.79,45.62c-1.26-1.65-2.66-.79-3.87.36-6.26,5.94-13.82,8.52-22.33,8.6-2.13.02-4.24-.09-6.35-.28-3.49-.32-6.94-.91-10.39-1.63-2.45-.51-5.44-.42-7.18-1.83-1.86-1.51-1.55-4.75-2.04-7.25-.34-1.75-.67-3.51-.95-5.27-.85-5.21-1.32-10.45-.72-15.79.76-6.72,3.33-12.58,7.86-17.6.21-.22.38-.48.6-.69,1.09-1.07,1.75-2.32.48-3.56-1.38-1.36-2.65-.5-3.72.65-3.23,3.5-5.81,7.41-7.42,11.92-2.96,8.25-2.66,16.63-1.38,25.07.07.43.14.86.21,1.29.33,2.04.7,4.07,1.06,6.13-.34.02-.43.06-.48.03-.42-.33-.83-.65-1.23-1-2.57-2.2-5.17-4.35-7.81-6.45-10.23-8.12-21.06-15.32-33.12-20.67-8.26-3.66-16.75-6.45-25.99-5.7-8.63.7-14.56,6.33-15.76,14.92-1,7.14.58,13.93,2.96,20.56,4.07,11.35,10.11,21.58,17.03,31.3,1.46,2.06,2.96,4.09,4.49,6.11.5.66,1.06,1.24,1.1,2.18.22,6.03,1.42,11.91,2.67,17.79.32,1.52,0,1.9-1.52,1.54-2.24-.52-4.49-1-6.75-1.4-2.53-.46-5.07-.82-7.62-1.06-8.04-.75-15.96-.38-23.43,3.2-3.6,1.73-6.8,4.02-9.61,6.86-.93.94-1.06,2.04-.11,3.04.95,1,2.02.9,3.04.05.53-.44,1.04-.89,1.54-1.35,4.74-4.23,10.27-6.69,16.56-7.5,6.67-.86,13.17-.06,19.62,1.14,2.87.53,5.74,1.15,8.61,1.73,1.09.22,1.25.97,1.41,1.8.44,2.3.9,4.59,1.33,6.88.38,1.96.74,3.92,1.07,5.89.56,3.3.7,6.65.82,10,.11,3.35-.77,6.56-1.49,9.74-1.12,5.02-3.95,9.25-7.42,13.04-1.48,1.62-1.25,3.22.44,3.82,1.34.48,2.14-.33,2.94-1.19,6.43-6.87,9.47-15.08,9.74-24.42.16-5.72-.6-11.32-1.65-16.88-.34-1.83-.72-3.65-1.11-5.48-.3-1.42-.22-1.89,1.46-1.52,5.12,1.12,10.28,2.06,15.51,2.55.52.05,1.24.08,1.49.41,1.32,1.74,3.24,2.72,4.89,4.04.11.08.21.17.32.26,11.86,9.97,24.49,18.79,38.77,25.03,7.29,3.19,14.79,5.61,22.87,5.53,8.85-.09,15.05-4.26,17.43-11.68,1.31-4.07,1.3-8.25.68-12.42-1.78-11.98-7.14-22.53-13.3-32.73-4.97-8.22-10.63-15.9-16.83-23.23-3.83-4.54-7.87-8.94-12.06-13.24,2.56-.45,4.81.31,7.08.66,1.68.26,3.33.47,4.98.61,11.43,1.05,22.17-.76,31.4-9.13,1.17-1.06,2.33-2.27,1.16-3.81ZM91.8,78.87c-2.1-2.56-3.86-5.15-5.56-7.75-.33-.5-.65-1.01-.97-1.51-6.19-9.72-11.6-19.79-14.17-31.16-.57-2.53-.85-5.09-.83-7.69.06-9.79,5.58-15.08,15.37-14.65,9.17.41,17.48,3.74,25.53,7.79,8.09,4.08,15.67,8.98,22.88,14.42,1.38,1.04,2.74,2.1,4.08,3.17,2.86,2.28,5.87,4.42,8.29,7.3-3.64-1.04-7.36-1.38-10.97-1.77-18.94-2.03-39.11,6.08-43.26,30.53-.06.36-.21.7-.39,1.31ZM123.57,111.24h-1.73c-6.76-.15-13.91-1.65-21.05-3.19-.8-.17-1.37-.44-1.57-1.37-1.77-8.46-3.67-16.91-3.11-25.65l18.55,18.55c.37.37.85.55,1.32.55s.96-.18,1.32-.55c.73-.73.73-1.91,0-2.65l-20.58-20.58c.42-2.08,1.03-4.07,1.82-5.95l19.56,19.56c.37.37.85.55,1.32.55s.96-.18,1.32-.55c.73-.73.73-1.91,0-2.65l-20.46-20.46c1.17-2.04,2.56-3.93,4.14-5.63l16.13,16.13c.37.37.85.55,1.32.55s.95-.18,1.32-.55c.73-.73.73-1.92,0-2.65l-16.07-16.07c5.43-4.59,12.48-7.35,20.3-7.47,8.15-.13,16.02,1.52,23.91,3.21.68.15,1.31.28,1.48,1.15,1.4,6.83,3.08,13.64,3.32,20.6l-12.77-12.77c-.37-.37-.85-.55-1.32-.55s-.96.18-1.32.55c-.73.73-.73,1.91,0,2.65l15.3,15.3c-.02.28-.04.56-.07.84-.21,2.03-.57,3.98-1.07,5.84l-15.26-15.26c-.37-.37-.85-.55-1.32-.55s-.96.18-1.32.55c-.73.73-.73,1.92,0,2.65l16.59,16.59c-.9,2.24-2.03,4.32-3.36,6.22l-12.68-12.68c-.37-.37-.85-.55-1.32-.55s-.96.18-1.32.55c-.73.73-.73,1.91,0,2.65l12.98,12.98c-5.81,6.41-14.3,10.13-24.3,10.13ZM174.24,77.33c8.16,10.13,15.31,20.98,20.74,33.02,3.05,6.75,5.41,13.75,5.44,21.27.04,9.59-5.31,14.82-14.91,14.67-8.17-.13-15.67-2.87-22.92-6.29-11.4-5.38-21.75-12.38-31.53-20.24-1.38-1.11-2.75-2.24-4.11-3.39-.16-.13-.26-.34-.62-.82,6.03-.63,11.54-1.9,16.51-4.97,10.56-6.53,16.47-15.93,17.43-28.33.55-7.1-.24-14.1-2.03-20.99-.08-.3-.27-.57.02-.79.34-.26.79-.18,1.05.06.77.73,1.49,1.51,2.22,2.29,4.42,4.7,8.69,9.52,12.7,14.5Z"/>
          <path class="cls-13" d="M58.5,119.93c-1.17-1.17-2.51-2.13-3.92-.71-1.45,1.47-.29,2.74.85,3.88,9.53,9.51,19.04,19.04,28.56,28.55.48.48.96,1.01,1.54,1.34,1.55.88,3.23-.15,3.16-1.88-.04-.91-.57-1.54-1.17-2.14-9.68-9.68-19.36-19.36-29.03-29.04Z"/>
          <path class="cls-4" d="M172.56,21.37c7.09,7.1,14.18,14.2,21.28,21.29,1.08,1.07,2.36,2.02,3.72.56,1.16-1.26.54-2.48-.55-3.58-9.73-9.72-19.45-19.47-29.17-29.2-.65-.65-1.29-1.32-2.33-1.28-.8.03-1.51.28-1.84,1.08-.47,1.11-.18,2.06.66,2.9,2.75,2.73,5.49,5.48,8.23,8.22Z"/>
          <path class="cls-14" d="M160.36,19.05c-.8.76-.82,1.79-.28,2.73.3.51.78.92,1.21,1.35,6.54,6.56,13.09,13.11,19.64,19.66,1.43,1.43,2.85,2.85,4.32,4.23.73.69,1.62.78,2.53.31.76-.4,1.03-1.07.97-1.9.03-1.12-.75-1.77-1.45-2.47-7.57-7.57-15.14-15.14-22.72-22.7-.48-.48-.96-.98-1.52-1.37-.92-.65-1.92-.6-2.71.16Z"/>
          <path class="cls-5" d="M65.35,114.86c-.74.07-1.45.32-1.79,1.11-.51,1.22-.05,2.18.83,3.07,7.97,7.94,15.94,15.89,23.89,23.85,1.1,1.1,2.36,1.66,3.56.41,1.09-1.13.62-2.36-.43-3.4-8.02-8-16.03-16.01-24.03-24.03-.56-.56-1.18-.95-2.04-.99Z"/>
          <path class="cls-2" d="M161.45,32.2c-.83-.83-1.72-1.22-2.87-.71-.81.35-1.08,1.01-1.07,1.96-.03.6.26,1.18.77,1.7,4.62,4.62,9.23,9.25,13.86,13.86.98.98,2.18,1.31,3.22.25,1.1-1.12.81-2.34-.27-3.4-1.33-1.32-2.65-2.65-3.98-3.98-3.22-3.22-6.45-6.44-9.67-9.67Z"/>
          <path class="cls-11" d="M90.79,130.29c1,1.01,2.14,1.33,3.21.33,1.14-1.07.92-2.29-.16-3.37-1.18-1.18-2.35-2.37-3.53-3.55-3.37-3.38-6.75-6.76-10.13-10.12-.79-.79-1.7-1.3-2.86-.8-.89.38-1.19,1.11-1.16,2.28-.19,1.46,1.35,1.93,2.26,2.85,4.12,4.13,8.25,8.25,12.37,12.39Z"/>
          <path class="cls-1" d="M182.46,142.66c.45-.04.9-.13,1.35-.22,7.54-1.61,11.63-7.49,11.36-16.36-.15-5.3-1.39-10.37-3.21-15.33-.56-1.53-1.42-2.71-3.17-2.02-1.76.69-1.43,2.12-.89,3.59,1.84,4.94,3.17,10,2.97,15.33-.13,3.62-1.09,6.92-4.34,9.07-1.48.98-3.16,1.43-4.88,1.79-1.19.25-1.88,1.12-1.67,2.34.22,1.3,1.12,1.93,2.47,1.8Z"/>
        </g>
      </g>
    </g>
  </g>
</svg>