<?xml version="1.0" encoding="UTF-8"?>
<svg id="Layer_2" xmlns="http://www.w3.org/2000/svg" viewBox="0 0 365.26 118.22">
  <defs>
    <style>
      .cls-1 {
        fill: #fafcfe;
      }

      .cls-2 {
        fill: #353535;
      }
    </style>
  </defs>
  <g id="Layer_1-2" data-name="Layer_1">
    <g>
      <g>
        <path class="cls-1" d="M117.92,33.21c-.91-1.2-1.94-.58-2.82.26-4.56,4.32-10.06,6.21-16.26,6.26-1.55.01-3.09-.06-4.62-.21-2.54-.24-5.06-.66-7.56-1.18-1.79-.37-3.96-.3-5.23-1.33-1.35-1.1-1.13-3.46-1.48-5.27-.25-1.28-.49-2.55-.7-3.83-.62-3.79-.96-7.61-.52-11.5.56-4.9,2.42-9.16,5.72-12.81.15-.16.28-.35.44-.5.79-.78,1.28-1.69.35-2.59-1.01-.99-1.93-.36-2.71.47-2.35,2.55-4.23,5.39-5.4,8.68-2.15,6-1.94,12.11-1,18.25.05.31.1.63.15.94.24,1.48.51,2.96.77,4.46-.25.02-.32.04-.35.02-.3-.24-.61-.48-.9-.73-1.87-1.6-3.76-3.17-5.69-4.69-7.45-5.91-15.34-11.15-24.11-15.05-6.01-2.67-12.2-4.7-18.92-4.15-6.29.51-10.6,4.61-11.47,10.87-.73,5.2.43,10.14,2.16,14.97,2.96,8.26,7.36,15.71,12.4,22.79,1.06,1.5,2.16,2.98,3.27,4.45.36.48.77.9.8,1.59.16,4.39,1.03,8.67,1.95,12.95.24,1.1,0,1.38-1.1,1.12-1.63-.38-3.27-.73-4.91-1.02-1.84-.33-3.69-.6-5.55-.77-5.86-.55-11.62-.28-17.05,2.33-2.62,1.26-4.95,2.93-6.99,4.99-.68.69-.77,1.49-.08,2.22.69.73,1.47.66,2.21.03.38-.32.75-.65,1.12-.98,3.45-3.08,7.48-4.87,12.06-5.46,4.86-.63,9.59-.04,14.28.83,2.09.39,4.18.84,6.27,1.26.79.16.91.71,1.02,1.31.32,1.67.65,3.34.97,5.01.28,1.43.54,2.86.78,4.29.41,2.4.51,4.84.6,7.28.08,2.44-.56,4.78-1.08,7.09-.82,3.65-2.87,6.73-5.4,9.49-1.08,1.18-.91,2.34.32,2.78.97.35,1.56-.24,2.14-.86,4.68-5,6.89-10.98,7.09-17.78.12-4.16-.44-8.24-1.2-12.29-.25-1.33-.53-2.66-.8-3.99-.22-1.03-.16-1.37,1.06-1.11,3.73.82,7.48,1.5,11.29,1.86.38.03.9.06,1.09.3.96,1.27,2.36,1.98,3.56,2.94.08.06.16.12.23.19,8.63,7.26,17.83,13.68,28.22,18.22,5.31,2.32,10.77,4.09,16.65,4.03,6.44-.06,10.96-3.1,12.69-8.5.95-2.97.95-6,.5-9.04-1.3-8.72-5.2-16.4-9.68-23.83-3.62-5.99-7.74-11.58-12.25-16.91-2.79-3.3-5.73-6.51-8.78-9.64,1.86-.33,3.51.23,5.16.48,1.22.19,2.43.34,3.63.45,8.32.76,16.14-.56,22.86-6.65.85-.77,1.7-1.66.84-2.77ZM34.2,57.42c-1.53-1.87-2.81-3.75-4.04-5.64-.24-.37-.47-.74-.71-1.1-4.51-7.07-8.45-14.41-10.31-22.68-.42-1.84-.62-3.7-.61-5.6.05-7.12,4.06-10.98,11.19-10.66,6.67.3,12.73,2.72,18.58,5.67,5.89,2.97,11.41,6.54,16.66,10.5,1,.76,1.99,1.53,2.97,2.31,2.08,1.66,4.27,3.22,6.03,5.32-2.65-.76-5.36-1.01-7.99-1.29-13.79-1.48-28.47,4.43-31.49,22.23-.04.26-.15.51-.29.95ZM57.33,80.99h-1.26c-4.92-.11-10.12-1.2-15.32-2.32-.58-.13-1-.32-1.14-1-1.29-6.16-2.68-12.31-2.26-18.67l13.5,13.5c.27.27.62.4.96.4s.7-.13.96-.4c.53-.53.53-1.39,0-1.93l-14.98-14.98c.31-1.51.75-2.96,1.32-4.34l14.24,14.24c.27.27.62.4.96.4s.7-.13.96-.4c.53-.53.53-1.39,0-1.93l-14.9-14.9c.85-1.49,1.86-2.86,3.01-4.1l11.74,11.74c.27.27.62.4.96.4s.7-.13.96-.4c.53-.53.53-1.4,0-1.93l-11.7-11.7c3.95-3.34,9.09-5.35,14.78-5.44,5.93-.1,11.66,1.11,17.4,2.34.5.11.95.2,1.08.84,1.02,4.97,2.24,9.93,2.42,15l-9.3-9.3c-.27-.27-.62-.4-.96-.4s-.7.13-.96.4c-.53.53-.53,1.39,0,1.93l11.14,11.14c-.02.2-.03.41-.05.61-.15,1.48-.42,2.9-.78,4.25l-11.11-11.11c-.27-.27-.62-.4-.96-.4s-.7.13-.96.4c-.53.53-.53,1.4,0,1.93l12.08,12.08c-.66,1.63-1.48,3.15-2.44,4.53l-9.23-9.23c-.27-.27-.62-.4-.96-.4s-.7.13-.96.4c-.53.53-.53,1.39,0,1.93l9.45,9.45c-4.23,4.67-10.41,7.37-17.69,7.37ZM94.22,56.3c5.94,7.38,11.14,15.28,15.1,24.04,2.22,4.91,3.94,10.01,3.96,15.49.03,6.98-3.86,10.79-10.86,10.68-5.95-.1-11.41-2.09-16.69-4.58-8.3-3.91-15.84-9.01-22.95-14.73-1-.81-2-1.63-2.99-2.46-.11-.1-.19-.25-.45-.6,4.39-.46,8.4-1.39,12.02-3.62,7.69-4.75,11.99-11.6,12.69-20.63.4-5.17-.18-10.26-1.48-15.28-.06-.22-.2-.42.02-.58.25-.19.57-.13.76.05.56.53,1.09,1.1,1.62,1.67,3.22,3.42,6.33,6.93,9.25,10.56Z"/>
        <path class="cls-1" d="M9.96,87.31c-.85-.85-1.83-1.55-2.85-.51-1.05,1.07-.21,1.99.62,2.82,6.94,6.92,13.86,13.86,20.8,20.79.35.35.7.74,1.12.98,1.13.64,2.35-.11,2.3-1.37-.03-.66-.41-1.12-.85-1.56-7.05-7.05-14.09-14.09-21.13-21.14Z"/>
        <path class="cls-1" d="M92.99,15.56c5.16,5.17,10.32,10.34,15.5,15.5.78.78,1.72,1.47,2.71.41.85-.91.4-1.81-.4-2.61-7.09-7.08-14.16-14.17-21.24-21.26-.47-.47-.94-.96-1.69-.93-.58.02-1.1.2-1.34.79-.34.81-.13,1.5.48,2.11,2,1.99,3.99,3.99,5.99,5.99Z"/>
        <path class="cls-1" d="M84.11,13.87c-.58.56-.6,1.3-.2,1.99.22.37.57.67.88.98,4.76,4.77,9.53,9.54,14.3,14.31,1.04,1.04,2.08,2.08,3.15,3.08.53.5,1.18.57,1.84.23.56-.29.75-.78.7-1.38.03-.82-.55-1.29-1.05-1.8-5.51-5.51-11.02-11.02-16.54-16.53-.35-.35-.7-.71-1.1-1-.67-.48-1.4-.43-1.98.12Z"/>
        <path class="cls-1" d="M14.94,83.62c-.54.05-1.06.23-1.3.81-.37.89-.04,1.59.61,2.23,5.8,5.78,11.6,11.57,17.39,17.36.8.8,1.72,1.21,2.59.3.79-.83.45-1.72-.31-2.48-5.84-5.83-11.67-11.66-17.5-17.5-.41-.41-.86-.69-1.48-.72Z"/>
        <path class="cls-1" d="M84.91,23.44c-.6-.61-1.25-.88-2.09-.52-.59.26-.79.74-.78,1.43-.03.44.19.86.56,1.23,3.37,3.36,6.72,6.73,10.09,10.09.72.71,1.58.95,2.34.18.8-.81.59-1.7-.19-2.48-.97-.96-1.93-1.93-2.9-2.89-2.35-2.35-4.7-4.69-7.04-7.04Z"/>
        <path class="cls-1" d="M33.46,94.86c.73.74,1.56.97,2.33.24.83-.78.67-1.67-.12-2.46-.86-.86-1.71-1.72-2.57-2.58-2.46-2.46-4.91-4.92-7.38-7.37-.58-.57-1.23-.94-2.08-.59-.64.27-.87.8-.85,1.66-.14,1.06.98,1.4,1.65,2.07,3,3.01,6.01,6.01,9,9.02Z"/>
        <path class="cls-1" d="M100.21,103.86c.33-.03.66-.09.98-.16,5.49-1.17,8.47-5.46,8.27-11.91-.11-3.86-1.01-7.55-2.33-11.16-.41-1.11-1.03-1.97-2.31-1.47-1.28.5-1.04,1.54-.64,2.62,1.34,3.6,2.31,7.28,2.17,11.16-.1,2.64-.8,5.04-3.16,6.61-1.08.71-2.3,1.04-3.55,1.3-.86.18-1.37.81-1.22,1.71.16.95.81,1.41,1.8,1.31Z"/>
      </g>
      <g>
        <path class="cls-2" d="M154.91,21.09c3.62,0,6.83.56,9.6,1.68,2.78,1.12,5.19,2.77,7.24,4.94l-4.91,6.56c-1.69-1.77-3.52-3.1-5.47-3.99-1.95-.89-4.17-1.33-6.65-1.33-1.46,0-2.64.16-3.55.47-.91.32-1.56.75-1.95,1.3-.39.55-.59,1.18-.59,1.89,0,.83.38,1.53,1.15,2.1.77.57,2.02,1.05,3.75,1.45l6.56,1.48c3.9.91,6.76,2.23,8.57,3.96,1.81,1.73,2.72,4.04,2.72,6.92s-.71,5.09-2.13,7c-1.42,1.91-3.37,3.35-5.85,4.31-2.48.96-5.32,1.45-8.51,1.45-2.6,0-5.08-.29-7.45-.86-2.36-.57-4.49-1.39-6.38-2.45-1.89-1.06-3.49-2.28-4.79-3.66l4.91-6.8c.98,1.14,2.2,2.16,3.63,3.04,1.44.89,3.01,1.59,4.73,2.1,1.71.51,3.46.77,5.23.77,1.38,0,2.53-.14,3.46-.41.93-.28,1.61-.69,2.04-1.24.43-.55.65-1.2.65-1.95,0-.83-.3-1.53-.89-2.1-.59-.57-1.71-1.05-3.37-1.45l-7.21-1.6c-2.21-.51-4.17-1.19-5.88-2.04-1.71-.85-3.06-1.99-4.05-3.43-.99-1.44-1.48-3.24-1.48-5.41,0-2.44.67-4.62,2.01-6.53,1.34-1.91,3.27-3.42,5.79-4.52,2.52-1.1,5.54-1.65,9.04-1.65Z"/>
        <path class="cls-2" d="M191.08,30.54c2.99,0,5.49.42,7.48,1.27,1.99.85,3.55,1.97,4.67,3.37,1.12,1.4,1.82,2.91,2.1,4.52l-9.28,3.07c-.28-1.69-.78-2.96-1.51-3.81-.73-.85-1.78-1.27-3.16-1.27-1.26,0-2.32.29-3.16.86-.85.57-1.49,1.48-1.92,2.72-.43,1.24-.65,2.83-.65,4.76s.24,3.5.71,4.7c.47,1.2,1.14,2.07,2.01,2.6.87.53,1.89.8,3.07.8.98,0,1.8-.19,2.45-.56.65-.37,1.19-.92,1.63-1.63.43-.71.71-1.58.83-2.6l9.04,2.9c-.28,1.73-1.01,3.28-2.22,4.64-1.2,1.36-2.79,2.43-4.76,3.22-1.97.79-4.28,1.18-6.92,1.18-3.23,0-6.05-.6-8.45-1.8-2.4-1.2-4.26-2.96-5.56-5.26-1.3-2.31-1.95-5.07-1.95-8.3s.65-6,1.95-8.3,3.12-4.06,5.47-5.26c2.34-1.2,5.05-1.8,8.13-1.8Z"/>
        <path class="cls-2" d="M215.61,27.71c-2.05,0-3.54-.38-4.46-1.15-.93-.77-1.39-1.98-1.39-3.63s.46-2.93,1.39-3.69c.93-.77,2.41-1.15,4.46-1.15s3.49.38,4.43,1.15,1.42,2,1.42,3.69-.47,2.87-1.42,3.63c-.95.77-2.42,1.15-4.43,1.15ZM220.64,31.13v29.55h-10.05v-29.55h10.05Z"/>
        <path class="cls-2" d="M273.65,21.68v39.01h-8.98v-17.91l.3-12h-.12l-9.63,29.91h-8.22l-9.63-29.91h-.12l.3,12v17.91h-9.04V21.68h14.48l6.15,19.86,2.19,8.27h.12l2.25-8.22,6.09-19.92h13.89Z"/>
        <path class="cls-2" d="M286.6,27.71c-2.05,0-3.54-.38-4.46-1.15-.93-.77-1.39-1.98-1.39-3.63s.46-2.93,1.39-3.69c.93-.77,2.41-1.15,4.46-1.15s3.49.38,4.43,1.15c.95.77,1.42,2,1.42,3.69s-.47,2.87-1.42,3.63c-.95.77-2.42,1.15-4.43,1.15ZM291.62,31.13v29.55h-10.05v-29.55h10.05Z"/>
        <path class="cls-2" d="M298.77,60.69v-29.55h8.98l.53,10.17-1.12-1.12c.39-2.13,1.09-3.9,2.1-5.32,1-1.42,2.27-2.49,3.78-3.22,1.52-.73,3.22-1.09,5.11-1.09,2.05,0,3.83.39,5.35,1.18,1.52.79,2.71,1.95,3.58,3.49.87,1.54,1.3,3.47,1.3,5.79v19.68h-10.05v-17.02c0-2.05-.39-3.47-1.18-4.26-.79-.79-1.79-1.18-3.01-1.18-.95,0-1.83.23-2.66.68-.83.45-1.48,1.17-1.95,2.16-.47.99-.71,2.31-.71,3.96v15.66h-10.05Z"/>
        <path class="cls-2" d="M346.29,61.28c-2.44,0-4.58-.6-6.41-1.8-1.83-1.2-3.25-2.95-4.26-5.23-1-2.28-1.51-5.02-1.51-8.22s.52-6.11,1.57-8.39c1.04-2.28,2.5-4.04,4.37-5.26,1.87-1.22,4.03-1.83,6.47-1.83,2.68,0,4.84.82,6.47,2.45,1.63,1.64,2.69,3.71,3.16,6.24l-.95,1.24v-21.87h10.05v42.08h-8.98l-.65-10.05,1.18.89c-.24,1.97-.84,3.68-1.8,5.14-.97,1.46-2.19,2.59-3.66,3.4-1.48.81-3.16,1.21-5.05,1.21ZM349.78,53.89c1.14,0,2.12-.3,2.93-.92.81-.61,1.43-1.53,1.86-2.75.43-1.22.65-2.72.65-4.49,0-1.65-.21-3.06-.62-4.23-.41-1.16-1.02-2.05-1.83-2.66-.81-.61-1.78-.92-2.93-.92-1.73,0-3.1.64-4.11,1.92-1,1.28-1.51,3.3-1.51,6.06s.49,4.78,1.48,6.06c.98,1.28,2.34,1.92,4.08,1.92Z"/>
        <g>
          <path class="cls-1" d="M140.51,99.67v-31.54h22.13v3.58h-18.3v10.18h14.24v3.58h-14.24v10.61h19.02v3.58h-22.84Z"/>
          <path class="cls-1" d="M178.69,100.15c-1.98,0-3.79-.49-5.45-1.48-1.66-.99-2.98-2.41-3.97-4.28-.99-1.86-1.48-4.09-1.48-6.67s.53-4.89,1.58-6.74c1.05-1.85,2.44-3.26,4.16-4.23,1.72-.97,3.57-1.46,5.54-1.46s3.69.51,5.14,1.53c1.45,1.02,2.41,2.37,2.89,4.06l-.48.33v-16.44h3.82v34.88h-3.34l-.33-5.78.53-.29c-.22,1.4-.76,2.59-1.6,3.56-.84.97-1.88,1.71-3.11,2.22-1.23.51-2.53.76-3.89.76ZM179.07,96.8c1.53,0,2.86-.38,3.99-1.15,1.13-.76,2.01-1.86,2.63-3.27.62-1.42.93-3.08.93-4.99s-.31-3.38-.93-4.68c-.62-1.31-1.48-2.31-2.58-3.01-1.1-.7-2.38-1.05-3.85-1.05-2.42,0-4.3.83-5.64,2.49-1.34,1.66-2.01,3.85-2.01,6.59s.65,4.94,1.96,6.59c1.31,1.66,3.14,2.49,5.5,2.49Z"/>
          <path class="cls-1" d="M207.98,100.15c-1.53,0-2.97-.29-4.33-.86-1.35-.57-2.45-1.51-3.3-2.8-.84-1.29-1.27-2.97-1.27-5.04v-15.67h3.82v14.67c0,2.42.53,4.09,1.58,4.99,1.05.91,2.53,1.36,4.44,1.36.89,0,1.77-.15,2.63-.45.86-.3,1.63-.78,2.32-1.43.68-.65,1.23-1.49,1.62-2.51.4-1.02.6-2.23.6-3.63v-13h3.82v23.89h-3.35l-.24-3.63c-.83,1.43-1.95,2.48-3.37,3.13-1.42.65-3.08.98-4.99.98Z"/>
          <path class="cls-1" d="M238.71,75.3c1.66,0,3.11.26,4.37.76,1.26.51,2.35,1.24,3.27,2.2.92.96,1.67,2.09,2.25,3.39l-3.63,1.72c-.51-1.53-1.28-2.7-2.32-3.51-1.04-.81-2.38-1.22-4.04-1.22s-2.96.36-4.11,1.08c-1.15.72-2.02,1.75-2.63,3.11-.61,1.35-.91,2.99-.91,4.9s.3,3.5.91,4.87c.6,1.37,1.48,2.41,2.63,3.13,1.15.72,2.52,1.08,4.11,1.08,1.24,0,2.32-.19,3.23-.57.91-.38,1.66-.94,2.25-1.67.59-.73,1-1.62,1.22-2.68l3.54,1.24c-.54,1.47-1.28,2.72-2.22,3.78-.94,1.05-2.07,1.86-3.39,2.41-1.32.56-2.83.84-4.52.84-2.23,0-4.22-.49-5.97-1.48-1.75-.99-3.12-2.41-4.11-4.28-.99-1.86-1.48-4.09-1.48-6.67s.49-4.8,1.48-6.67c.99-1.86,2.36-3.29,4.11-4.28,1.75-.99,3.74-1.48,5.97-1.48Z"/>
          <path class="cls-1" d="M269.53,84.24c0-1.78-.48-3.16-1.43-4.13-.96-.97-2.31-1.46-4.06-1.46-1.66,0-3.06.36-4.21,1.08-1.15.72-1.99,1.87-2.53,3.46l-3.11-1.91c.64-1.78,1.82-3.23,3.54-4.33,1.72-1.1,3.85-1.65,6.4-1.65,1.72,0,3.28.29,4.68.88,1.4.59,2.51,1.48,3.32,2.68.81,1.19,1.22,2.73,1.22,4.61v11.56c0,1.15.6,1.72,1.82,1.72.6,0,1.19-.08,1.77-.24l-.19,3.01c-.64.32-1.47.48-2.48.48-.92,0-1.75-.18-2.49-.53-.73-.35-1.31-.88-1.72-1.6-.41-.72-.62-1.62-.62-2.7v-.48l.96.14c-.38,1.24-1.04,2.25-1.96,3.03-.92.78-1.96,1.35-3.11,1.72-1.15.37-2.28.55-3.39.55-1.4,0-2.71-.24-3.92-.72-1.21-.48-2.17-1.2-2.89-2.17-.72-.97-1.08-2.17-1.08-3.61,0-1.78.6-3.26,1.79-4.42,1.19-1.16,2.86-1.95,4.99-2.37l9.46-1.86v3.15l-7.69,1.58c-1.56.32-2.72.76-3.49,1.34-.76.57-1.15,1.37-1.15,2.39s.39,1.79,1.17,2.41c.78.62,1.89.93,3.32.93.92,0,1.81-.12,2.65-.36.84-.24,1.6-.6,2.27-1.1.67-.49,1.19-1.11,1.58-1.86.38-.75.57-1.63.57-2.65v-6.59Z"/>
          <path class="cls-1" d="M296.01,75.78v3.3h-17.3v-3.3h17.3ZM287.31,68.99v24.08c0,1.18.33,2.05,1,2.63.67.57,1.53.86,2.58.86.92,0,1.72-.16,2.39-.48.67-.32,1.27-.75,1.82-1.29l1.34,3.2c-.73.67-1.6,1.19-2.6,1.58-1,.38-2.16.57-3.47.57-1.21,0-2.34-.21-3.39-.65s-1.89-1.11-2.51-2.05c-.62-.94-.95-2.17-.98-3.7v-23.7l3.82-1.05Z"/>
          <path class="cls-1" d="M303.61,71.19c-.86,0-1.55-.26-2.08-.79-.53-.53-.79-1.22-.79-2.08s.26-1.55.79-2.08c.53-.53,1.22-.79,2.08-.79s1.55.26,2.08.79.79,1.22.79,2.08-.26,1.55-.79,2.08c-.53.53-1.22.79-2.08.79ZM305.52,75.78v23.89h-3.82v-23.89h3.82Z"/>
          <path class="cls-1" d="M324.3,75.3c2.26,0,4.26.49,6,1.48,1.74.99,3.1,2.41,4.09,4.28.99,1.86,1.48,4.09,1.48,6.67s-.49,4.8-1.48,6.67c-.99,1.86-2.35,3.29-4.09,4.28-1.74.99-3.74,1.48-6,1.48s-4.22-.49-5.97-1.48c-1.75-.99-3.12-2.41-4.11-4.28-.99-1.86-1.48-4.09-1.48-6.67s.49-4.8,1.48-6.67c.99-1.86,2.36-3.29,4.11-4.28,1.75-.99,3.74-1.48,5.97-1.48ZM324.3,78.6c-1.62,0-3.01.37-4.16,1.1-1.15.73-2.03,1.78-2.65,3.13-.62,1.35-.93,2.99-.93,4.9s.31,3.5.93,4.87c.62,1.37,1.51,2.42,2.65,3.15,1.15.73,2.53,1.1,4.16,1.1s3.01-.37,4.16-1.1c1.15-.73,2.03-1.78,2.65-3.15.62-1.37.93-2.99.93-4.87s-.31-3.54-.93-4.9c-.62-1.35-1.51-2.4-2.65-3.13-1.15-.73-2.53-1.1-4.16-1.1Z"/>
          <path class="cls-1" d="M343.08,99.67v-23.89h3.35l.33,5.35-.62-.53c.51-1.27,1.19-2.3,2.05-3.08.86-.78,1.86-1.35,2.99-1.7,1.13-.35,2.3-.53,3.51-.53,1.72,0,3.28.33,4.68.98,1.4.65,2.52,1.65,3.37,2.99.84,1.34,1.27,3.04,1.27,5.11v15.29h-3.82v-13.95c0-2.64-.57-4.48-1.7-5.52-1.13-1.03-2.52-1.55-4.18-1.55-1.15,0-2.29.27-3.44.81-1.15.54-2.1,1.42-2.84,2.63-.75,1.21-1.12,2.84-1.12,4.87v12.71h-3.82Z"/>
        </g>
      </g>
    </g>
  </g>
</svg>